:FULLY-SPECIFIED
:FORCE-ALL-JOINTS-BE-3DOF
:DEGREES
1733
root -5.52776 15.1457 24.9965 -1.82846 4.46478 -2.87945
lfemur -36.7651 4.58321 -14.1794
ltibia 64.565 -0 0
lfoot -16.064 15.2147 -1.44759
ltoes -35.3299 0 0
rfemur -39.941 -12.6011 21.5791
rtibia 50.5074 -0 0
rfoot -12.8609 -20.4881 0.118089
rtoes -4.85367 0 0
lowerback 17.9741 1.96216 -1.35496
upperback 0.562649 2.62733 3.38695
thorax -8.81255 1.33017 3.929
lowerneck 2.01838 -10.9397 -11.0778
upperneck -0.0965836 -15.1677 13.5531
head 2.19688 -7.64536 5.8207
lclavicle 2.19985e-14 -2.46782e-14 1.12483e-30
lhumerus -30.7096 -43.4786 99.878
lradius 102.934 -0 0
lwrist 2.81807 0 0
lhand 8.0027 39.4789 -3.42118
lfingers 7.12502 -0 0
lthumb 42.5271 41.6562 -14.9816
rclavicle 2.19985e-14 -2.46782e-14 1.12483e-30
rhumerus 53.6119 17.0063 -25.829
rradius 81.8544 -0 0
rwrist -27.0209 0 0
rhand -0.679218 -42.1824 0.996736
rfingers 7.12502 -0 0
rthumb 25.1327 -70.2802 0.903394
1734
root -5.40361 15.1501 25.0671 -2.10083 7.56174 -3.03025
lfemur -37.1215 4.70367 -14.0328
ltibia 64.5655 -0 0
lfoot -15.6545 14.8872 -1.45916
ltoes -35.3251 0 0
rfemur -39.5109 -12.74 21.7125
rtibia 50.7098 -0 0
rfoot -13.0096 -20.5679 0.118838
rtoes -5.11529 0 0
lowerback 17.9475 2.07248 -1.16617
upperback 0.530915 2.81171 3.33563
thorax -8.83057 1.41089 3.71845
lowerneck 1.83788 -10.75 -10.9381
upperneck 0.103225 -14.9015 13.343
head 2.23275 -7.50344 5.74616
lclavicle 2.18675e-14 -2.37134e-14 1.12585e-30
lhumerus -31.0977 -43.2478 100.129
lradius 103.27 -0 0
lwrist 1.80779 0 0
lhand 8.63255 39.415 -3.52621
lfingers 7.12502 -0 0
lthumb 43.5302 40.5893 -15.2248
rclavicle 2.18675e-14 -2.37134e-14 1.12585e-30
rhumerus 53.5626 16.8329 -26.0415
rradius 81.0429 -0 0
rwrist -26.9476 0 0
rhand -1.29502 -42.5412 0.968658
rfingers 7.12502 -0 0
rthumb 24.5547 -70.7599 0.85701
1735
root -5.27905 15.1546 25.1379 -2.38289 10.6452 -3.19656
lfemur -37.4778 4.82489 -13.8863
ltibia 64.5642 -0 0
lfoot -15.2426 14.5591 -1.46846
ltoes -35.3184 0 0
rfemur -39.0791 -12.88 21.8448
rtibia 50.9122 -0 0
rfoot -13.159 -20.6481 0.119396
rtoes -5.37768 0 0
lowerback 17.9209 2.183 -0.977187
upperback 0.498929 2.99625 3.28416
thorax -8.84887 1.49163 3.50764
lowerneck 1.65747 -10.5591 -10.7987
upperneck 0.302516 -14.6336 13.1336
head 2.26855 -7.36096 5.67154
lclavicle 2.17366e-14 -2.2749e-14 1.1246e-30
lhumerus -31.4788 -43.0146 100.374
lradius 103.604 -0 0
lwrist 0.796908 0 0
lhand 9.27652 39.3453 -3.63006
lfingers 7.12502 -0 0
lthumb 44.5402 39.509 -15.4466
rclavicle 2.17366e-14 -2.2749e-14 1.1246e-30
rhumerus 53.5114 16.6616 -26.2556
rradius 80.2333 -0 0
rwrist -26.8756 0 0
rhand -1.90873 -42.8985 0.937324
rfingers 7.12502 -0 0
rthumb 23.9787 -71.2367 0.806801
1736
root -5.15414 15.159 25.2087 -2.67612 13.7117 -3.37937
lfemur -37.8339 4.94678 -13.7397
ltibia 64.5609 -0 0
lfoot -14.8285 14.2307 -1.47548
ltoes -35.3098 0 0
rfemur -38.6458 -13.0209 21.9758
rtibia 51.1145 -0 0
rfoot -13.309 -20.7287 0.119761
rtoes -5.64072 0 0
lowerback 17.8945 2.29363 -0.788143
upperback 0.466709 3.18082 3.23257
thorax -8.86743 1.57233 3.29673
lowerneck 1.47728 -10.3673 -10.6596
upperneck 0.50118 -14.3642 12.925
head 2.30427 -7.21803 5.59691
lclavicle 2.1606e-14 -2.17857e-14 1.12109e-30
lhumerus -31.8526 -42.7792 100.615
lradius 103.934 -0 0
lwrist -0.213818 0 0
lhand 9.93504 39.2694 -3.73251
lfingers 7.12502 -0 0
lthumb 45.556 38.4161 -15.6459
rclavicle 2.1606e-14 -2.17857e-14 1.12109e-30
rhumerus 53.4582 16.4927 -26.4713
rradius 79.4265 -0 0
rwrist -26.8051 0 0
rhand -2.51974 -43.2538 0.902845
rfingers 7.12502 -0 0
rthumb 23.4051 -71.7101 0.752943
1737
root -5.02896 15.1633 25.2796 -2.98213 16.7579 -3.57988
lfemur -38.1895 5.06925 -13.5933
ltibia 64.5555 -0 0
lfoot -14.4123 13.9022 -1.48019
ltoes -35.299 0 0
rfemur -38.2111 -13.1626 22.1056
rtibia 51.3166 -0 0
rfoot -13.4595 -20.8096 0.119931
rtoes -5.90425 0 0
lowerback 17.8682 2.40429 -0.599169
upperback 0.434276 3.36528 3.1809
thorax -8.88624 1.65294 3.08586
lowerneck 1.2974 -10.1745 -10.521
upperneck 0.699113 -14.0935 12.7173
head 2.33989 -7.0747 5.5223
lclavicle 2.14759e-14 -2.08242e-14 1.11533e-30
lhumerus -32.2183 -42.5419 100.849
lradius 104.26 -0 0
lwrist -1.22364 0 0
lhand 10.6086 39.1871 -3.83331
lfingers 7.12502 -0 0
lthumb 46.5764 37.3114 -15.8222
rclavicle 2.14759e-14 -2.08242e-14 1.11533e-30
rhumerus 53.4028 16.3265 -26.6885
rradius 78.6232 -0 0
rwrist -26.7363 0 0
rhand -3.12742 -43.6067 0.86535
rfingers 7.12502 -0 0
rthumb 22.8346 -72.1796 0.695633
1738
root -4.90356 15.1677 25.3506 -3.30271 19.7804 -3.79946
lfemur -38.5444 5.19221 -13.447
ltibia 64.5479 -0 0
lfoot -13.9944 13.5738 -1.48256
ltoes -35.286 0 0
rfemur -37.7753 -13.3051 22.2339
rtibia 51.5183 -0 0
rfoot -13.6105 -20.8907 0.119906
rtoes -6.16815 0 0
lowerback 17.842 2.51489 -0.410398
upperback 0.401651 3.54951 3.12919
thorax -8.90528 1.73338 2.87519
lowerneck 1.11794 -9.98092 -10.3828
upperneck 0.896212 -13.8217 12.5108
head 2.37539 -6.93107 5.44776
lclavicle 2.13464e-14 -1.98653e-14 1.10735e-30
lhumerus -32.5755 -42.3027 101.079
lradius 104.582 -0 0
lwrist -2.2318 0 0
lhand 11.2976 39.0981 -3.93219
lfingers 7.12502 -0 0
lthumb 47.6 36.1958 -15.9748
rclavicle 2.13464e-14 -1.98653e-14 1.10735e-30
rhumerus 53.3451 16.1634 -26.9072
rradius 77.8241 -0 0
rwrist -26.6694 0 0
rhand -3.73114 -43.9568 0.824982
rfingers 7.12502 -0 0
rthumb 22.2678 -72.6445 0.635087
1739
root -4.77802 15.1721 25.4215 -3.6398 22.7759 -4.03972
lfemur -38.8982 5.31557 -13.301
ltibia 64.538 -0 0
lfoot -13.5747 13.2458 -1.4826
ltoes -35.2707 0 0
rfemur -37.3386 -13.4481 22.3607
rtibia 51.7195 -0 0
rfoot -13.762 -20.972 0.119685
rtoes -6.43227 0 0
lowerback 17.816 2.62537 -0.221961
upperback 0.368852 3.73336 3.07748
thorax -8.92454 1.81361 2.66486
lowerneck 0.939017 -9.78666 -10.2453
upperneck 1.09238 -13.5488 12.3054
head 2.41075 -6.78721 5.37335
lclavicle 2.12176e-14 -1.89097e-14 1.09718e-30
lhumerus -32.9238 -42.0619 101.302
lradius 104.898 -0 0
lwrist -3.23755 0 0
lhand 12.0025 39.0022 -4.02888
lfingers 7.12502 -0 0
lthumb 48.6257 35.0702 -16.1028
rclavicle 2.12176e-14 -1.89097e-14 1.09718e-30
rhumerus 53.285 16.0035 -27.1273
rradius 77.0301 -0 0
rwrist -26.6043 0 0
rhand -4.33028 -44.3038 0.781899
rfingers 7.12502 -0 0
rthumb 21.7051 -73.1044 0.571539
1740
root -4.65241 15.1764 25.4923 -3.99559 25.741 -4.30253
lfemur -39.2508 5.43923 -13.1552
ltibia 64.5256 -0 0
lfoot -13.1536 12.9184 -1.4803
ltoes -35.2529 0 0
rfemur -36.9012 -13.5917 22.4859
rtibia 51.9202 -0 0
rfoot -13.9137 -21.0535 0.119269
rtoes -6.69647 0 0
lowerback 17.7901 2.73564 -0.0339903
upperback 0.335903 3.91671 3.02579
thorax -8.944 1.89356 2.45502
lowerneck 0.760729 -9.59181 -10.1085
upperneck 1.28752 -13.275 12.1013
head 2.44595 -6.6432 5.29909
lclavicle 2.10896e-14 -1.79581e-14 1.08485e-30
lhumerus -33.2626 -41.8196 101.519
lradius 105.21 -0 0
lwrist -4.24014 0 0
lhand 12.7238 38.899 -4.12309
lfingers 7.12502 -0 0
lthumb 49.6519 33.9356 -16.2058
rclavicle 2.10896e-14 -1.79581e-14 1.08485e-30
rhumerus 53.2224 15.8471 -27.3489
rradius 76.242 -0 0
rwrist -26.5414 0 0
rhand -4.92423 -44.6473 0.736273
rfingers 7.12502 -0 0
rthumb 21.1473 -73.5587 0.505241
1741
root -4.52679 15.1807 25.563 -4.37252 28.6721 -4.59006
lfemur -39.6018 5.56309 -13.0099
ltibia 64.5107 -0 0
lfoot -12.7311 12.5918 -1.47565
ltoes -35.2325 0 0
rfemur -36.4634 -13.7356 22.6094
rtibia 52.12 -0 0
rfoot -14.0656 -21.1351 0.118659
rtoes -6.96061 0 0
lowerback 17.7643 2.84562 0.153383
upperback 0.302825 4.09942 2.97417
thorax -8.96364 1.97318 2.24582
lowerneck 0.583179 -9.39649 -9.97239
upperneck 1.48153 -13.0006 11.8987
head 2.48097 -6.49913 5.22504
lclavicle 2.09625e-14 -1.70112e-14 1.07043e-30
lhumerus -33.5914 -41.5761 101.73
lradius 105.515 -0 0
lwrist -5.23881 0 0
lhand 13.4619 38.7883 -4.21453
lfingers 7.12502 -0 0
lthumb 50.6772 32.7931 -16.2833
rclavicle 2.09625e-14 -1.70112e-14 1.07043e-30
rhumerus 53.157 15.6945 -27.5717
rradius 75.4604 -0 0
rwrist -26.4808 0 0
rhand -5.51237 -44.9869 0.688291
rfingers 7.12502 -0 0
rthumb 20.5947 -74.0069 0.436466
1742
root -4.40124 15.1849 25.6336 -4.77334 31.5658 -4.9048
lfemur -39.9511 5.68704 -12.8649
ltibia 64.4931 -0 0
lfoot -12.3075 12.2664 -1.46866
ltoes -35.2093 0 0
rfemur -36.0253 -13.8799 22.731
rtibia 52.3191 -0 0
rfoot -14.2178 -21.2168 0.117855
rtoes -7.22455 0 0
lowerback 17.7387 2.95522 0.340027
upperback 0.26964 4.28136 2.92266
thorax -8.98345 2.05241 2.03742
lowerneck 0.406471 -9.20079 -9.83714
upperneck 1.67434 -12.7255 11.6976
head 2.5158 -6.35506 5.15124
lclavicle 2.08366e-14 -1.60698e-14 1.05396e-30
lhumerus -33.9099 -41.3315 101.934
lradius 105.814 -0 0
lwrist -6.23282 0 0
lhand 14.2172 38.6699 -4.30287
lfingers 7.12502 -0 0
lthumb 51.7003 31.6436 -16.3348
rclavicle 2.08366e-14 -1.60698e-14 1.05396e-30
rhumerus 53.0889 15.5461 -27.7959
rradius 74.6862 -0 0
rwrist -26.4226 0 0
rhand -6.09409 -45.3223 0.638154
rfingers 7.12502 -0 0
rthumb 20.0481 -74.4484 0.365501
1743
root -4.27582 15.1892 25.7039 -5.20114 34.4188 -5.24963
lfemur -40.2983 5.81099 -12.7205
ltibia 64.4727 -0 0
lfoot -11.883 11.9423 -1.45935
ltoes -35.1834 0 0
rfemur -35.5872 -14.0242 22.8507
rtibia 52.5171 -0 0
rfoot -14.37 -21.2984 0.116859
rtoes -7.48816 0 0
lowerback 17.7132 3.06437 0.525809
upperback 0.236371 4.4624 2.87129
thorax -9.0034 2.1312 1.82996
lowerneck 0.230705 -9.00485 -9.70278
upperneck 1.86584 -12.4501 11.4981
head 2.55042 -6.21108 5.07774
lclavicle 2.07119e-14 -1.51346e-14 1.0355e-30
lhumerus -34.2175 -41.0861 102.132
lradius 106.107 -0 0
lwrist -7.22141 0 0
lhand 14.9903 38.5435 -4.38779
lfingers 7.12502 -0 0
lthumb 52.7196 30.4882 -16.3598
rclavicle 2.07119e-14 -1.51346e-14 1.0355e-30
rhumerus 53.0177 15.4019 -28.0214
rradius 73.9202 -0 0
rwrist -26.367 0 0
rhand -6.66878 -45.653 0.586073
rfingers 7.12502 -0 0
rthumb 19.5078 -74.8827 0.29265
